<?xml version="1.0" encoding="UTF-8" standalone="no"?>
<!-- Generator: Adobe Illustrator 17.1.0, SVG Export Plug-In . SVG Version: 6.00 Build 0)  -->

<svg
   xmlns:dc="http://purl.org/dc/elements/1.1/"
   xmlns:cc="http://creativecommons.org/ns#"
   xmlns:rdf="http://www.w3.org/1999/02/22-rdf-syntax-ns#"
   xmlns:svg="http://www.w3.org/2000/svg"
   xmlns="http://www.w3.org/2000/svg"
   xmlns:xlink="http://www.w3.org/1999/xlink"
   xmlns:sodipodi="http://sodipodi.sourceforge.net/DTD/sodipodi-0.dtd"
   xmlns:inkscape="http://www.inkscape.org/namespaces/inkscape"
   version="1.1"
   id="Layer_1"
   x="0px"
   y="0px"
   viewBox="0 0 16 16"
   enable-background="new 0 0 612 792"
   xml:space="preserve"
   inkscape:version="0.48.4 r9939"
   width="100%"
   height="100%"
   sodipodi:docname="initials.svg"
   inkscape:export-filename="C:\Users\sheehamj\Desktop\drunken-ironman\assets\images\favicon.ico.png"
   inkscape:export-xdpi="90"
   inkscape:export-ydpi="90"><metadata
   id="metadata3013"><rdf:RDF><cc:Work
       rdf:about=""><dc:format>image/svg+xml</dc:format><dc:type
         rdf:resource="http://purl.org/dc/dcmitype/StillImage" /><dc:title></dc:title></cc:Work></rdf:RDF></metadata><defs
   id="defs3011"><linearGradient
     inkscape:collect="always"
     id="linearGradient3785"><stop
       style="stop-color:#000000;stop-opacity:1;"
       offset="0"
       id="stop3787" /><stop
       style="stop-color:#000000;stop-opacity:0;"
       offset="1"
       id="stop3789" /></linearGradient><radialGradient
     inkscape:collect="always"
     xlink:href="#linearGradient3785"
     id="radialGradient3793"
     cx="306.5"
     cy="397.07025"
     fx="306.5"
     fy="397.07025"
     r="44.599998"
     gradientTransform="matrix(1,0,0,0.45897404,0,214.82531)"
     gradientUnits="userSpaceOnUse" /></defs><sodipodi:namedview
   pagecolor="#ffffff"
   bordercolor="#666666"
   borderopacity="1"
   objecttolerance="10"
   gridtolerance="10"
   guidetolerance="10"
   inkscape:pageopacity="0"
   inkscape:pageshadow="2"
   inkscape:window-width="1920"
   inkscape:window-height="1027"
   id="namedview3009"
   showgrid="true"
   inkscape:snap-to-guides="false"
   inkscape:snap-grids="true"
   inkscape:zoom="17.29"
   inkscape:cx="13.633231"
   inkscape:cy="10.034974"
   inkscape:window-x="-8"
   inkscape:window-y="-8"
   inkscape:window-maximized="1"
   inkscape:current-layer="g3003"
   fit-margin-top="0"
   fit-margin-left="0"
   fit-margin-right="0"
   fit-margin-bottom="0"><inkscape:grid
     type="xygrid"
     id="grid3783"
     empspacing="5"
     visible="true"
     enabled="true"
     snapvisiblegridlinesonly="true"
     originx="-0.06948558px"
     originy="-15.769272px" /></sodipodi:namedview>
<g
   id="g3001"
   transform="matrix(0.64,0,0,0.64,-164.7137,-253.66995)"
   style="fill-opacity:1;fill-rule:nonzero">
	<g
   id="g3003"
   style="fill-opacity:1;fill-rule:nonzero">
		<path
   d="m 258.21835,412.50219 c 1.46801,-2.41172 2.9098,-4.84967 4.40402,-7.26139 0.36701,-0.60293 0.9175,-1.07479 1.59908,-1.49422 0.73401,2.5428 -0.28836,4.87588 -0.49807,7.60217 1.25828,-1.6515 2.33308,-3.06708 3.59137,-4.71859 0,0.78643 0.0262,1.28451 0,1.80879 -0.0524,0.99616 -0.1835,1.9923 -0.1835,2.98845 0,1.12722 0.44565,1.33693 1.36315,0.65536 0.60293,-0.44565 1.101,-0.99615 1.62529,-1.49422 0.28836,-0.26215 0.60293,-0.52429 1.04857,-0.60293 -0.734,1.38936 -1.78257,2.49037 -3.2768,2.98844 -0.86507,0.28836 -1.31072,-0.39322 -1.31072,-1.17965 0,-1.07479 0.0786,-2.14958 0.13108,-3.40787 -1.28451,1.67772 -2.51659,3.2768 -3.72244,4.84966 -0.10487,-0.0786 -0.20972,-0.13107 -0.31458,-0.20972 0.52429,-2.75251 1.04858,-5.50502 1.54665,-8.25753 -0.13107,-0.0786 -0.28836,-0.13107 -0.41943,-0.20971 -0.26215,0.34078 -0.60293,0.62914 -0.81264,0.99614 -1.2583,2.20202 -2.46416,4.40402 -3.74867,6.57982 -0.20971,0.367 -0.68157,0.57672 -1.04857,0.86508 0.0262,-0.15729 0.0262,-0.31458 0.0262,-0.49808 z"
   id="path3005"
   inkscape:connector-curvature="0"
   style="fill-opacity:1;fill-rule:nonzero" />
		<path
   d="m 275.91307,411.55847 c 1.86123,-0.60293 3.69623,-1.20586 5.50503,-1.78258 0.0524,0.0524 0.10485,0.10486 0.15728,0.15729 -0.34079,0.26214 -0.65536,0.65536 -1.04857,0.78643 -1.15343,0.39322 -2.33308,0.70779 -3.51273,0.99614 -0.62915,0.15729 -1.02237,0.31458 -1.20586,1.10101 -0.28836,1.25829 -1.9923,2.01851 -3.17195,1.49423 -0.81265,-0.36701 -0.76021,-0.96994 -0.13107,-1.38937 0.734,-0.49807 1.59908,-0.86507 2.56901,-1.38936 -0.52429,-0.81265 -1.04858,-1.6253 -1.57287,-2.43795 -0.55049,-0.83885 -1.20585,-1.62528 -1.6515,-2.51657 -0.5505,-1.12723 -0.15729,-1.93987 1.07479,-2.09715 1.101,-0.13108 2.28065,-0.13108 3.38166,0.0524 1.52043,0.26214 1.93986,1.25828 1.17965,2.59522 -0.28836,0.5505 -0.76022,0.99614 -1.15344,1.46801 -0.13107,-0.0786 -0.26214,-0.18351 -0.39321,-0.26215 0.26214,-0.41943 0.52429,-0.83886 0.81265,-1.25829 0.76021,-1.15343 0.57671,-1.78258 -0.76023,-2.04472 -0.83885,-0.15729 -1.73014,-0.18351 -2.59522,-0.13107 -1.23207,0.0524 -1.59908,0.65536 -0.94372,1.70393 1.07479,1.62529 2.22822,3.17195 3.4603,4.95452 z m -3.2768,1.78258 c 1.70394,0.60293 2.33308,0.26214 2.56901,-1.20586 -0.94371,0.41943 -1.75636,0.81264 -2.56901,1.20586 z"
   id="path3007"
   inkscape:connector-curvature="0"
   style="fill-opacity:1;fill-rule:nonzero" />
	</g>
</g>
</svg>